<svg xmlns="http://www.w3.org/2000/svg" width="60" height="60" viewBox="0 0 20 20"><title/><path opacity=".5" fill="#A5A5A5" d="M10 1.313c-4.778 0-8.688 3.91-8.688 8.688S5.222 18.69 10 18.69s8.688-3.91 8.688-8.688S14.778 1.313 10 1.313z"/><path fill="#FCFCFC" d="M10 1.313c4.778 0 8.688 3.91 8.688 8.688S14.778 18.69 10 18.69 1.313 14.778 1.313 10 5.223 1.313 10 1.313m0-1C4.658.313.312 4.66.312 10S4.658 19.69 10 19.69s9.688-4.346 9.688-9.688S15.342.313 10 .313z"/><path fill="#FFF" d="M14.313 10L7.78 14.906v-9.78l5.72 4.28"/></svg>